<?xml version="1.0" encoding="UTF-8"?>
<svg width="105px" height="78px" viewBox="0 0 105 78" version="1.1" xmlns="http://www.w3.org/2000/svg" xmlns:xlink="http://www.w3.org/1999/xlink">
    <title>contact</title>
    <g id="Page-1" stroke="none" stroke-width="1" fill="none" fill-rule="evenodd">
        <g id="contact">
            <path d="M29.0952,8.1572 C29.4972,8.6582 29.6182,8.8922 29.8072,9.0332 C39.5822,16.2432 49.3832,23.4182 59.1172,30.6812 C60.4032,31.6412 61.1502,31.1312 62.1352,30.4032 C68.6922,25.5602 75.2742,20.7512 81.8372,15.9142 C85.1492,13.4722 88.4362,10.9972 92.2432,8.1572 L29.0952,8.1572 Z M104.2942,60.5596202 C101.7222,60.9456202 99.5172,56.5034461 96.9682,56.8844461 L96.9682,14.0632 C95.7432,14.8722 95.0122,15.3092 94.3292,15.8112 C84.2642,23.2092 74.2042,30.6152 64.1442,38.0192 C61.0342,40.3092 59.9162,40.3192 56.8132,38.0342 C46.0172,30.0842 35.2142,22.1432 24.4482,14.1512 C23.4752,13.4292 22.6502,12.4432 21.9412,11.4472 C20.5422,9.4802 19.3402,7.3742 17.9322,5.4142 C16.2552,3.0752 17.0962,0.9862 20.0072,0.5882 C20.7452,0.4872 21.5042,0.5202 22.2542,0.5202 C47.8342,0.5172 73.4142,0.5162 98.9952,0.5202 C103.1422,0.5202 104.2662,1.5642 104.2832,5.6172" id="Fill-4" fill="#000000"></path>
            <path d="M54.1523,77.6387 C48.1463,77.4167 42.8663,74.8517 37.7783,72.0737 C20.9973,62.9077 8.9783,49.4827 2.2753,31.4527 C-0.3267,24.4517 0.0943,18.0797 5.9293,12.7247 C7.4003,11.3747 8.7223,9.8637 10.2013,8.5247 C11.9223,6.9657 13.3083,7.0807 14.5563,8.9797 C17.8943,14.0557 21.1523,19.1857 24.4263,24.3047 C25.5593,26.0757 25.2873,27.6117 23.5403,28.8357 C22.3813,29.6477 21.2913,30.6007 20.0403,31.2327 C17.4353,32.5497 17.0483,34.7267 17.7733,37.1317 C18.4633,39.4157 19.2733,41.7537 20.5203,43.7637 C24.0813,49.4997 28.8613,54.1307 34.4803,57.8527 C35.9193,58.8047 37.5533,59.5247 39.1853,60.1067 C43.8413,61.7677 45.1253,61.3107 47.9243,57.3137 C51.4583,52.2707 51.4573,52.2717 56.7143,55.6517 C60.7753,58.2627 64.8473,60.8567 68.8973,63.4877 C71.4373,65.1367 71.6073,66.4517 69.5173,68.6677 C67.8613,70.4227 66.1173,72.0957 64.3973,73.7907 C61.5593,76.5877 58.0903,77.7047 54.1523,77.6387" id="Fill-6" fill="#000000"></path>
            <path d="M97.0705904,54.1944 C103.795152,58.9623071 105.884578,61.3652656 103.338869,61.4032756 C100.79316,61.4412857 92.2032037,61.4393271 77.569,61.3974 C71.716,61.4854 68.627,56.6464 64.04,54.8014 C64.111,54.5994 64.182,54.3974 64.252,54.1944 L97.0705904,54.1944 Z" id="Fill-8" fill="#000000"></path>
            <path d="M92.2432,8.1572 C88.4362,10.9972 85.1492,13.4722 81.8372,15.9142 C75.2742,20.7512 68.6922,25.5602 62.1352,30.4032 C61.1502,31.1312 60.4032,31.6412 59.1172,30.6812 C49.3832,23.4182 39.5822,16.2432 29.8072,9.0332 C29.6182,8.8922 29.4972,8.6582 29.0952,8.1572 L92.2432,8.1572 Z" id="Fill-10" fill="#FFFFFF"></path>
        </g>
    </g>
</svg>