<?xml version="1.0" encoding="UTF-8"?>
<svg width="115px" height="76px" viewBox="0 0 115 76" version="1.1" xmlns="http://www.w3.org/2000/svg" xmlns:xlink="http://www.w3.org/1999/xlink">
    <title>name</title>
    <g id="Page-1" stroke="none" stroke-width="1" fill="none" fill-rule="evenodd">
        <g id="name">
            <path d="M48.085,67.1866 C48.085,63.2706 48.122,59.4636 48.077,55.6586 C47.997,48.9006 43.322,43.9846 36.545,43.7706 C31.224,43.6026 25.889,43.6136 20.565,43.7646 C13.685,43.9596 9.009,48.8866 8.9,55.8326 C8.855,58.8276 8.995,61.8296 8.856,64.8196 C8.764,66.7896 9.425,67.3906 11.407,67.3766 C22.894,67.2926 34.38,67.3376 45.866,67.3306 C46.513,67.3296 47.158,67.2486 48.085,67.1866 M28.504,75.0276 C20.926,75.0276 13.348,75.0346 5.769,75.0236 C2.243,75.0186 1.013,73.7716 1,70.1846 C0.982,65.5216 0.992,60.8576 0.996,56.1946 C1.003,45.0006 8.551,36.5576 19.771,35.8696 C26.147,35.4776 32.636,35.4326 38.967,36.1596 C49.178,37.3306 55.902,45.4326 56.002,55.6856 C56.048,60.4316 56.02,65.1786 56.008,69.9256 C55.998,73.8386 54.83,75.0226 50.99,75.0256 C43.495,75.0316 35.999,75.0276 28.504,75.0276" id="Fill-4" fill="#000000"></path>
            <path d="M28.625,8.3472 C24.398,8.2972 20.779,11.7802 20.677,15.9962 C20.57,20.3492 24.151,24.0032 28.515,23.9942166 C32.777,23.9852 36.303,20.4692 36.3110139,16.2182 C36.319,11.9172 32.882,8.3972 28.625,8.3472 M12.8678085,16.0622 C12.911,7.3322 19.877,0.4412 28.631,0.470108804 C37.229,0.4972 44.403,7.7552 44.263,16.2812 C44.119,24.9482 36.856,32.1402 28.407,31.9802 C19.698,31.8162 12.826,24.7762 12.8678085,16.0622" id="Fill-6" fill="#000000"></path>
            <polygon id="Fill-8" fill="#000000" points="68.107 31.787 114.8 31.787 114.8 24.18 68.107 24.18"></polygon>
            <polygon id="Fill-10" fill="#000000" points="68.074 47.403 114.897 47.403 114.897 39.862 68.074 39.862"></polygon>
            <path d="M68.0273,63.1768 L68.0273,55.5768 C69.0253,55.5328 69.9073,55.4608 70.7903,55.4588 C76.9353,55.4498 83.0813,55.5068 89.2253,55.4228 C90.9823,55.3998 91.5063,56.0378 91.5443,57.7328 C91.6683,63.1778 91.7243,63.1768 86.2433,63.1768 L68.0273,63.1768 Z" id="Fill-11" fill="#000000"></path>
            <path d="M48.085,67.1866 C47.158,67.2486 46.513,67.3296 45.866,67.3306 C34.38,67.3376 22.894,67.2926 11.407,67.3766 C9.425,67.3906 8.764,66.7896 8.856,64.8196 C8.995,61.8296 8.855,58.8276 8.9,55.8326 C9.009,48.8866 13.685,43.9596 20.565,43.7646 C25.889,43.6136 31.224,43.6026 36.545,43.7706 C43.322,43.9846 47.997,48.9006 48.077,55.6586 C48.122,59.4636 48.085,63.2706 48.085,67.1866" id="Fill-12" fill="#FFFFFF"></path>
            <path d="M28.625,8.3472 C32.882,8.3972 36.319,11.9172 36.3110139,16.2182 C36.303,20.4692 32.777,23.9852 28.515,23.9942166 C24.151,24.0032 20.57,20.3492 20.677,15.9962 C20.779,11.7802 24.398,8.2972 28.625,8.3472" id="Fill-13" fill="#FFFFFF"></path>
        </g>
    </g>
</svg>