<?xml version="1.0" encoding="UTF-8"?>
<svg width="107px" height="101px" viewBox="0 0 107 101" version="1.1" xmlns="http://www.w3.org/2000/svg" xmlns:xlink="http://www.w3.org/1999/xlink">
    <title>other</title>
    <defs>
        <polygon id="path-1" points="0 0.000115224747 106.863537 0.000115224747 106.863537 100.546 0 100.546"></polygon>
        <polygon id="path-3" points="0.0005 0.000602251252 45.5545 0.000602251252 45.5545 44.5012 0.0005 44.5012"></polygon>
    </defs>
    <g id="Page-1" stroke="none" stroke-width="1" fill="none" fill-rule="evenodd">
        <g id="other">
            <path d="M6.48800718,93.6039661 L6.48800718,90.799186 C6.48800718,70.3440401 6.51866042,49.8868477 6.44091731,29.4317018 C6.43283134,27.427118 6.99072036,26.4969666 8.90143914,25.7213287 C22.9171234,20.0360466 36.8847842,14.2320652 50.8320095,8.37896693 C52.6272677,7.625841 54.1159935,7.63505042 55.8908163,8.41478135 C62.3474109,11.2502595 68.8683774,13.938387 75.3689083,16.6694918 C76.1301305,16.989775 76.9209842,17.2394526 78.1266784,17.6784349 L78.1266784,10.2863402 L84.6537755,10.2863402 C84.6537755,13.0778178 84.5086834,15.8621326 84.7334739,18.6188191 C84.8090852,19.5530636 85.6091348,20.8413592 86.4285982,21.2322479 C90.0262671,22.9533863 93.728157,24.4678243 97.44333,25.9249592 C98.949426,26.5164087 99.4378343,27.3861873 99.4337472,28.9855566 C99.3857238,49.7824743 99.3785714,70.5783687 99.4409173,91.3752864 C99.4449867,93.340986 98.7409839,93.8239689 96.9109853,93.8219288 C67.5492662,93.7799683 38.1855034,93.7932708 8.82378426,93.7850847 C8.15758712,93.7850847 7.49138998,93.6848043 6.48800718,93.6039661" id="Path" fill="#FFFFFF"></path>
            <mask id="mask-2" fill="white">
                <use xlink:href="#path-1"></use>
            </mask>
            <g id="Clip-2"></g>
            <path d="M8.0045,92.4497 C8.9865,92.5287 9.6385,92.6267 10.2905,92.6277 C39.0265,92.6357 67.7645,92.6217 96.5005,92.6627142 C98.2915,92.6657 98.9815,92.1937 98.976527,90.2717 C98.9155,69.9487 98.9225,49.6247 98.9695,29.3007 C98.9735,27.7387 98.4955,26.8877 97.0225,26.3107 C93.3855,24.8857 89.7625,23.4057 86.2415,21.7237 C85.4405,21.3417 84.6565,20.0837 84.5825,19.1697 C84.3625,16.4767 84.5045,13.7547 84.5045,11.0267 L78.1165,11.0267 L78.1165,18.2507 C76.9375,17.8227 76.1625,17.5777 75.4175,17.2647 C69.0555,14.5957 62.6735,11.9697 56.3555,9.1987 C54.6175,8.4357 53.1605,8.4267 51.4035,9.1627 C37.7545,14.8837 24.0835,20.5547 10.3665,26.1117 C8.4965,26.8687 7.9505,27.7787 7.95841365,29.7367 C8.0335,49.7267 8.0045,69.7187 8.0045,89.7097 L8.0045,92.4497 Z M70.2495,6.4957 C69.3185,2.5227 71.7225,2.9397 73.9615,2.9577 C80.0235,3.0047 86.0855,2.9727 92.4425,2.9727 C92.4425,6.3657 92.6355,9.5157 92.3815,12.6297 C92.1755,15.1697 93.1615,16.3717 95.4485,17.1787 C98.5815,18.2847 101.5875,19.7477 104.6945,20.9347 C106.2195,21.5177 106.863537,22.3377 106.8595,24.0567 C106.8065,48.7187 106.8015,73.3807 106.863537,98.0417 C106.8695,100.0807 106.1435,100.546705 104.2515,100.5447 C70.3425,100.4997 36.4335,100.4987 2.5245,100.546705 C0.5715,100.5487 -0.0055,99.9807 -0.000532153838,97.9917 C0.0675,73.3307 0.0585,48.6687 0.0115,24.0077 C0.0085,22.4527 0.4515,21.6167 1.9275,21.0137 C18.5575,14.2137 35.1735,7.3807 51.7585,0.4697 C53.3895,-0.2093 54.7015,-0.1273 56.2505,0.5567 C60.7255,2.5347 65.2545,4.3877 70.2495,6.4957 L70.2495,6.4957 Z" id="Fill-1" fill="#000000" mask="url(#mask-2)"></path>
            <g id="Group-3" mask="url(#mask-2)">
                <g transform="translate(31.000000, 34.000000)">
                    <mask id="mask-4" fill="white">
                        <use xlink:href="#path-3"></use>
                    </mask>
                    <g id="Clip-2" stroke="none" fill="none"></g>
                    <path d="M37.9415,23.9849 C40.2715,26.3149 42.7915,28.8339 45.5545,31.5969 C44.8105,32.3129 44.0595,33.0339 43.2805,33.7829 C41.9815,32.5519 40.8575,31.4859 39.2885,29.9989 C39.2885,31.9739 39.3045,33.4279 39.2855,34.8819 C39.2085,40.5009 35.2665,44.5719 29.9855,44.5009 C24.7805,44.4299 20.9625,40.4049 20.9465,34.8999 C20.9225,27.0679 20.9435,19.2359 20.9365,11.4049 C20.9355,10.4059 20.9535,9.3979 20.8385,8.4089 C20.4995,5.4929 17.8965,3.2209 15.0255,3.2699 C12.2265,3.3169 9.6805,5.5059 9.4085,8.3269 C9.2355,10.1259 9.3765,11.9549 9.3765,14.5379 C10.6055,12.7739 11.4905,11.5059 12.6655,9.8219 C13.9655,11.4149 14.6255,12.2209 15.2435,12.9789 C12.7395,15.4699 10.2075,17.9899 7.7925,20.3929 C5.3305,17.8739 2.7575,15.2429 0.0005,12.4219 C0.4195,12.0269 1.1315,11.3559 1.9995,10.5399 C3.2165,11.6989 4.3315,12.7589 5.9405,14.2909 C5.9405,12.4049 5.9305,11.0509 5.9425,9.6989 C5.9885,4.1559 9.7535,0.0829 14.8965,0.0019 C20.3005,-0.0831 24.2615,4.0159 24.2815,9.7949 C24.3095,17.9599 24.2005,26.1269 24.3615,34.2889 C24.3955,35.9979 24.9945,37.9369 25.9665,39.3279 C27.2985,41.2319 29.5455,41.7099 31.8165,40.9559 C34.1505,40.1799 35.6025,38.5149 35.8195,36.0339 C35.9695,34.3179 35.8485,32.5779 35.8485,30.3679 C34.4015,31.6949 33.2785,32.7249 31.9755,33.9189 C31.3105,33.0759 30.6955,32.2959 30.2335,31.7109 C32.7025,29.2359 35.2615,26.6709 37.9415,23.9849" id="Fill-1" stroke="none" fill="#000000" fill-rule="evenodd" mask="url(#mask-4)"></path>
                </g>
            </g>
        </g>
    </g>
</svg>