<?xml version="1.0" encoding="UTF-8"?>
<svg width="108px" height="101px" viewBox="0 0 108 101" version="1.1" xmlns="http://www.w3.org/2000/svg" xmlns:xlink="http://www.w3.org/1999/xlink">
    <title>purchase</title>
    <g id="Page-1" stroke="none" stroke-width="1" fill="none" fill-rule="evenodd">
        <g id="purchase">
            <path d="M8.4688,92.6689 C9.3798,92.7469 9.9478,92.8379 10.5168,92.8379 C39.3398,92.8449 68.1628,92.8329 96.9858,92.8749061 C98.7878,92.8769 99.4558,92.3869 99.44984,90.4759 C99.3908,70.1499 99.3978,49.8239 99.4458,29.4979 C99.4488,27.9289 98.9568,27.0889 97.4898,26.5139 C93.9308,25.1199 90.4538,23.5139 86.8928,22.1269 C85.4058,21.5469 84.8778,20.6899 84.9438,19.1249 C85.0538,16.5019 84.9738,13.8719 84.9738,11.2319 L78.5838,11.2319 L78.5838,18.4409 C77.5668,18.0809 76.9458,17.8949 76.3508,17.6459 C69.9088,14.9469 63.4418,12.3099 57.0528,9.4899 C55.1428,8.6469 53.5548,8.6479 51.6318,9.4559 C38.0628,15.1559 24.4668,20.7939 10.8248,26.3189 C8.9458,27.0799 8.4168,28.0029 8.42373166,29.9539 C8.4968,49.9459 8.4688,69.9389 8.4688,89.9319 L8.4688,92.6689 Z M92.9128,3.1769 C92.9128,7.0059 93.0058,10.4209 92.8728,13.8279 C92.8068,15.5409 93.4678,16.3799 94.9958,16.9729 C98.4078,18.2949 101.7458,19.8089 105.1568,21.1349 C106.6618,21.7209 107.3488,22.5119 107.3448,24.2469 C107.2898,48.9109 107.2858,73.5749 107.346827,98.2389 C107.3518,100.2599 106.6528,100.7649 104.7428,100.761913 C70.8308,100.7169 36.9178,100.7159 3.0048,100.761913 C1.0728,100.7649 0.4578,100.2279 0.4637566,98.2209 C0.5318,73.5569 0.5218,48.8929 0.4768,24.2299 C0.4738,22.6839 0.8958,21.8299 2.3768,21.2239 C19.1628,14.3619 35.9128,7.4089 52.7228,0.6039 C53.8398,0.1519 55.4848,0.3799 56.6718,0.8389 C61.2358,2.6019 65.7118,4.5869 70.7148,6.6979 C69.8108,2.7749 72.1588,3.1359 74.4208,3.1569 C80.4838,3.2149 86.5468,3.1769 92.9128,3.1769 L92.9128,3.1769 Z" id="Fill-4" fill="#000000"></path>
            <path d="M42.4414,66.4971 C43.3234,66.4151 44.1444,66.2761 44.9654,66.2731 C51.1294,66.2541 57.2944,66.2901 63.4574,66.2521 C67.4804,66.2271 68.7954,65.2491 70.0244,61.4841 C71.2874,57.6141 72.5194,53.7351 73.7424,49.8521 C74.9474,46.0241 73.5384,44.0291 69.5574,44.0051 C63.6434,43.9701 57.7294,43.9961 51.8154,43.9961 C46.4184,43.9951 41.0204,43.9961 35.6884,43.9961 C33.5034,36.9291 31.6804,38.1421 26.3624,38.1351 C25.7884,38.1351 25.2124,39.0541 24.6384,39.5461 C25.2124,40.0291 25.7194,40.6991 26.3824,40.9421 C27.0444,41.1851 27.8764,41.0931 28.6094,40.9871 C30.8204,40.6691 31.8674,41.5841 32.4734,43.7561 C34.5274,51.1161 36.7744,58.4231 38.9564,65.7481 C39.4254,67.3251 39.8514,68.7571 39.0284,70.5021 C38.1764,72.3061 38.7834,74.4451 40.6434,75.2081 C42.0434,75.7821 44.6644,75.9451 45.3784,75.1171 C47.1954,73.0071 49.2704,73.2791 51.4594,73.2661 C53.9574,73.2511 56.4634,73.1561 58.9524,73.3191 C59.8854,73.3791 60.9694,73.8631 61.6564,74.5051 C63.6674,76.3871 66.3254,76.5951 68.1144,74.7951 C69.7994,73.1001 69.8134,70.4781 68.1464,68.7381 C66.3934,66.9061 63.7164,67.0541 61.7184,69.0011 C61.1754,69.5301 60.4034,70.1871 59.7464,70.1771 C53.8404,70.0781 47.5874,71.6541 42.4414,66.4971 M8.4684,92.6691 L8.4684,89.9321 C8.4684,69.9391 8.4974,49.9461 8.42334958,29.9541 C8.4174,28.0031 8.9454,27.0801 10.8254,26.3191 C24.4664,20.7941 38.0624,15.1561 51.6314,9.4551 C53.5544,8.6471 55.1424,8.6461 57.0524,9.4901 C63.4414,12.3091 69.9094,14.9471 76.3504,17.6461 C76.9454,17.8951 77.5664,18.0811 78.5844,18.4411 L78.5844,11.2321 L84.9734,11.2321 C84.9734,13.8721 85.0534,16.5021 84.9434,19.1251 C84.8784,20.6901 85.4054,21.5471 86.8924,22.1261 C90.4544,23.5141 93.9304,25.1201 97.4894,26.5141 C98.9574,27.0891 99.4494,27.9291 99.4454,29.4971 C99.3974,49.8241 99.3904,70.1501 99.45044,90.4761 C99.4564,92.3871 98.7884,92.8771 96.9854,92.8741137 C68.1634,92.8321 39.3394,92.8451 10.5164,92.8381 C9.9484,92.8381 9.3794,92.7471 8.4684,92.6691" id="Fill-6" fill="#FFFFFF"></path>
            <path d="M43.085,73.6357 C43.705,72.7557 44.397,72.1707 44.292,71.8317 C44.125,71.2907 43.481,70.6777 42.936,70.5567 C42.608,70.4837 41.718,71.3097 41.74,71.6907 C41.773,72.2297 42.417,72.7317 43.085,73.6357 L43.085,73.6357 Z M36.48,47.1357 C37.902,51.9497 39.342,56.6227 40.64,61.3347 C41.046,62.8087 41.75,63.2937 43.255,63.2707 C48.501,63.1907 53.75,63.3017 58.996,63.2277 C67.576,63.1067 65.91,64.6277 68.606,56.2607 C69.559,53.3037 70.478,50.3357 71.486,47.1357 L36.48,47.1357 Z M42.441,66.4967 C47.587,71.6547 53.841,70.0777 59.746,70.1767 C60.403,70.1877 61.176,69.5297 61.719,69.0007 C63.717,67.0537 66.394,66.9067 68.147,68.7377 C69.814,70.4787 69.8,73.0997 68.114,74.7957 C66.325,76.5947 63.667,76.3867 61.656,74.5057 C60.97,73.8637 59.886,73.3797 58.952,73.3187 C56.464,73.1567 53.957,73.2517 51.459,73.2657 C49.271,73.2797 47.195,73.0067 45.378,75.1167 C44.664,75.9457 42.043,75.7817 40.644,75.2077 C38.783,74.4457 38.177,72.3057 39.028,70.5017 C39.852,68.7577 39.426,67.3247 38.956,65.7477 C36.774,58.4227 34.527,51.1157 32.474,43.7557 C31.867,41.5847 30.82,40.6697 28.609,40.9877 C27.876,41.0937 27.044,41.1847 26.383,40.9417 C25.72,40.6987 25.213,40.0287 24.639,39.5457 C25.213,39.0537 25.788,38.1347 26.362,38.1357 C31.681,38.1417 33.504,36.9287 35.689,43.9957 C41.021,43.9957 46.418,43.9947 51.815,43.9957 C57.73,43.9957 63.644,43.9697 69.558,44.0047 C73.538,44.0287 74.947,46.0237 73.742,49.8527 C72.52,53.7347 71.287,57.6147 70.024,61.4837 C68.795,65.2497 67.481,66.2267 63.457,66.2517 C57.294,66.2897 51.13,66.2547 44.966,66.2737 C44.145,66.2757 43.323,66.4147 42.441,66.4967 L42.441,66.4967 Z" id="Fill-8" fill="#000000"></path>
            <path d="M36.4795,47.1353 L71.4865,47.1353 C70.4775,50.3353 69.5585,53.3033 68.6065,56.2603 C65.9105,64.6273 67.5765,63.1063 58.9965,63.2273 C53.7505,63.3013 48.5005,63.1913 43.2545,63.2713 C41.7505,63.2943 41.0455,62.8093 40.6395,61.3353 C39.3415,56.6233 37.9025,51.9503 36.4795,47.1353" id="Fill-10" fill="#FFFFFF"></path>
            <path d="M43.085,73.6357 C42.417,72.7317 41.773,72.2297 41.74,71.6907 C41.718,71.3097 42.608,70.4837 42.936,70.5567 C43.481,70.6777 44.125,71.2907 44.292,71.8317 C44.397,72.1707 43.705,72.7557 43.085,73.6357" id="Fill-12" fill="#FFFFFF"></path>
        </g>
    </g>
</svg>