<?xml version="1.0" encoding="UTF-8"?>
<svg width="80px" height="101px" viewBox="0 0 80 101" version="1.1" xmlns="http://www.w3.org/2000/svg" xmlns:xlink="http://www.w3.org/1999/xlink">
    <title>reason</title>
    <g id="Page-1" stroke="none" stroke-width="1" fill="none" fill-rule="evenodd">
        <g id="reason">
            <path d="M62.1392,19.1717 L69.3452,19.1717 C67.0652,16.8747 64.5012,14.2927 62.1392,11.9137 L62.1392,19.1717 Z M73.4732,25.3747 L63.9462,25.3747 C56.0592,25.3747 56.0592,25.3747 56.0592,17.5727 L56.0592,6.2887 L53.1932,6.2887 C38.6202,6.2877 24.0462,6.3357 9.4732,6.23745277 C7.2042,6.2237 6.5312,6.7997 6.5382,9.1377 C6.6212,36.7017 6.6252,64.2677 6.53312975,91.8317 C6.5242,94.2777 7.3792,94.6847 9.5432,94.6768142 C29.9462,94.6097 50.3482,94.6367 70.7512,94.6367 L73.4732,94.6367 L73.4732,25.3747 Z M0.4662,50.3757 C0.4652,35.3027 0.4612,20.2297 0.4682,5.1557 C0.4702,0.9567 1.4042,0.0317 5.6092,0.036679884 C23.1772,0.0587 40.7452,0.0627 58.3132,0.1677 C59.4332,0.1747 60.8272,0.7047 61.6182,1.4777 C66.5622,6.3027 71.2532,11.3897 76.2732,16.1307 C78.8452,18.5607 79.8192,21.0737 79.7672,24.6637 C79.5432,40.3167 79.6702,55.9747 79.6702,71.6307 C79.6702,79.8747 79.6782,88.1187 79.6652,96.3627 C79.6602,99.8377 78.7012,100.8497 75.2302,100.8517 C51.8292,100.8697 28.4292,100.8707 5.0282,100.8517 C1.5282,100.8487 0.4782,99.6767 0.4732,95.8447 C0.4562,80.6887 0.4662,65.5317 0.4662,50.3757 L0.4662,50.3757 Z" id="Fill-4" fill="#000000"></path>
            <path d="M15.67,75.943 L39.91,75.943 L39.91,68.002 L15.67,68.002 L15.67,75.943 Z M15.556,59.397 L64.766,59.397 L64.766,51.548 L15.556,51.548 L15.556,59.397 Z M15.578,43.045 L64.704,43.045 L64.704,35.092 L15.578,35.092 L15.578,43.045 Z M73.473,25.375 L73.473,94.637 L70.751,94.637 C50.349,94.637 29.946,94.609 9.543,94.677088 C7.379,94.684 6.524,94.278 6.53292975,91.832 C6.625,64.267 6.622,36.702 6.538,9.138 C6.531,6.8 7.205,6.223 9.473,6.23771728 C24.046,6.336 38.62,6.288 53.193,6.289 L56.059,6.289 L56.059,17.573 C56.059,25.375 56.059,25.375 63.946,25.375 L73.473,25.375 Z" id="Fill-6" fill="#FFFFFF"></path>
            <path d="M62.1392,19.1717 L62.1392,11.9137 C64.5012,14.2927 67.0652,16.8747 69.3452,19.1717 L62.1392,19.1717 Z" id="Fill-8" fill="#FFFFFF"></path>
            <polygon id="Fill-9" fill="#000000" points="15.578 43.045 64.704 43.045 64.704 35.092 15.578 35.092"></polygon>
            <polygon id="Fill-10" fill="#000000" points="15.556 59.398 64.766 59.398 64.766 51.549 15.556 51.549"></polygon>
            <polygon id="Fill-11" fill="#000000" points="15.67 75.943 39.91 75.943 39.91 68.002 15.67 68.002"></polygon>
        </g>
    </g>
</svg>