<?xml version="1.0" encoding="UTF-8"?>
<svg width="108px" height="101px" viewBox="0 0 108 101" version="1.1" xmlns="http://www.w3.org/2000/svg" xmlns:xlink="http://www.w3.org/1999/xlink">
    <title>selling</title>
    <g id="Page-1" stroke="none" stroke-width="1" fill="none" fill-rule="evenodd">
        <g id="selling">
            <path d="M8.4688,92.6533 C9.4508,92.7323 10.1028,92.8303 10.7548,92.8303 C39.4908,92.8383 68.2288,92.8253 96.9648,92.8663063 C98.7558,92.8683 99.4458,92.3963 99.440827,90.4753 C99.3798,70.1513 99.3868,49.8283 99.4338,29.5043 C99.4378,27.9413 98.9598,27.0913 97.4868,26.5133 C93.8498,25.0893 90.2268,23.6093 86.7058,21.9273 C85.9048,21.5453 85.1208,20.2863 85.0468,19.3733 C84.8268,16.6793 84.9688,13.9583 84.9688,11.2303 L78.5808,11.2303 L78.5808,18.4543 C77.4018,18.0253 76.6268,17.7813 75.8818,17.4683 C69.5198,14.7993 63.1378,12.1723 56.8198,9.4013 C55.0818,8.6393 53.6248,8.6303 51.8678,9.3663 C38.2188,15.0863 24.5478,20.7583 10.8308,26.3143 C8.9608,27.0723 8.4148,27.9813 8.42271365,29.9403 C8.4988,49.9303 8.4688,69.9223 8.4688,89.9123 L8.4688,92.6533 Z M70.7138,6.6993 C69.7828,2.7263 72.1868,3.1433 74.4258,3.1613 C80.4878,3.2083 86.5498,3.1763 92.9068,3.1763 C92.9068,6.5693 93.0998,9.7193 92.8458,12.8333 C92.6388,15.3723 93.6258,16.5753 95.9128,17.3823 C99.0458,18.4883 102.0518,19.9513 105.1588,21.1383 C106.6838,21.7203 107.327826,22.5403 107.3238,24.2603 C107.2708,48.9223 107.2658,73.5833 107.327826,98.2443 C107.3328,100.2843 106.6078,100.749312 104.7158,100.7483 C70.8068,100.7033 36.8978,100.7023 2.9888,100.749312 C1.0358,100.7523 0.4588,100.1833 0.464753795,98.1943 C0.5318,73.5333 0.5218,48.8723 0.4758,24.2113 C0.4728,22.6563 0.9158,21.8203 2.3908,21.2163 C19.0218,14.4173 35.6378,7.5833 52.2228,0.6733 C53.8538,-0.0067 55.1668,0.0763 56.7148,0.7603 C61.1898,2.7383 65.7188,4.5903 70.7138,6.6993 L70.7138,6.6993 Z" id="Fill-4" fill="#000000"></path>
            <path d="M73.5049,54.6533 C73.5029,43.0063 64.0599,33.5223 52.4359,33.4952424 C40.6559,33.4683 31.0929,42.9383 31.0758746,54.6483 C31.0579,66.3593 40.6179,75.9663 52.3049,75.9823226 C63.9889,75.9993 73.5059,66.4243 73.5049,54.6533 M8.4689,92.6533 L8.4689,89.9123 C8.4689,69.9223 8.4989,49.9303 8.42281365,29.9403 C8.4149,27.9813 8.9609,27.0723 10.8309,26.3143 C24.5479,20.7583 38.2179,15.0863 51.8679,9.3663 C53.6249,8.6303 55.0819,8.6393 56.8189,9.4013 C63.1379,12.1723 69.5199,14.7993 75.8819,17.4683 C76.6269,17.7813 77.4009,18.0253 78.5809,18.4543 L78.5809,11.2303 L84.9689,11.2303 C84.9689,13.9583 84.8269,16.6793 85.0469,19.3733 C85.1209,20.2863 85.9039,21.5453 86.7059,21.9273 C90.2269,23.6093 93.8499,25.0893 97.4859,26.5133 C98.9599,27.0913 99.4379,27.9413 99.4339,29.5043 C99.3869,49.8283 99.3799,70.1513 99.4409173,90.4753 C99.4449,92.3963 98.7559,92.8683 96.9649,92.8663063 C68.2289,92.8253 39.4909,92.8383 10.7549,92.8303 C10.1029,92.8303 9.4509,92.7323 8.4689,92.6533" id="Fill-6" fill="#FFFFFF"></path>
            <path d="M52.3315,72.238319 C61.9255,72.2243 69.7855,64.4303 69.9045,54.8103 C70.0235,45.2743 61.8765,37.0843 52.2925,37.103267 C42.6555,37.1243 34.6725,45.2113 34.7735,54.8533 C34.8735,64.5093 42.6935,72.2523 52.3315,72.238319 M73.5045,54.6533 C73.5055,66.4243 63.9895,75.9993 52.3045,75.9823226 C40.6185,75.9673 31.0585,66.3593 31.0754774,54.6483 C31.0935,42.9383 40.6565,33.4683 52.4355,33.4952424 C64.0595,33.5223 73.5025,43.0063 73.5045,54.6533" id="Fill-8" fill="#000000"></path>
            <path d="M47.4419,52.3604 C44.8869,50.0234 42.4799,50.1724 40.9369,52.0654 C39.5479,53.7704 39.6999,56.2344 41.2859,57.7274 C43.0609,59.3984 45.4429,59.3034 47.8959,57.0554 C46.7969,57.0554 46.1249,57.1554 45.4959,57.0334 C44.4399,56.8274 43.0679,56.7794 42.4779,56.1004 C41.9809,55.5304 42.0129,53.7974 42.5279,53.2314 C43.1289,52.5714 44.4989,52.5684 45.5529,52.3804 C46.1649,52.2714 46.8109,52.3604 47.4419,52.3604 M58.6359,50.6274 L58.6359,58.5724 C58.8889,58.6894 59.1419,58.8074 59.3939,58.9244 C59.8889,58.0184 60.3839,57.1124 60.8389,56.2794 C61.8589,55.9364 62.9429,55.5724 64.0289,55.2074 C62.9609,54.7184 61.8919,54.2304 60.4469,53.5714 C60.4199,50.6914 63.5489,53.0134 64.8139,51.1874 C62.8129,50.0984 60.7779,50.7524 58.6359,50.6274 M50.0429,50.3934 L48.9959,50.8444 C48.9959,52.4094 48.8889,53.9844 49.0319,55.5364 C49.1309,56.6104 49.5749,57.6524 49.8649,58.7094 C50.3879,57.7664 50.9099,56.8254 51.5479,55.6734 L54.4519,55.6734 C54.6749,58.6324 54.6749,58.6324 56.3609,58.3444 L56.3609,50.6974 C53.3869,50.2724 55.2999,52.9734 54.1299,53.7574 L51.4299,53.7574 C50.8979,52.4674 50.4709,51.4304 50.0429,50.3934 M52.3319,72.238419 C42.6929,72.2524 34.8739,64.5094 34.7739,54.8534 C34.6719,45.2114 42.6549,37.1244 52.2929,37.103367 C61.8769,37.0844 70.0239,45.2744 69.9039,54.8104 C69.7849,64.4304 61.9259,72.2244 52.3319,72.238419" id="Fill-10" fill="#FFFFFF"></path>
            <path d="M50.043,50.3936 C50.471,51.4306 50.898,52.4676 51.43,53.7576 L54.13,53.7576 C55.3,52.9736 53.387,50.2726 56.361,50.6976 L56.361,58.3446 C54.675,58.6326 54.675,58.6326 54.452,55.6726 L51.548,55.6726 C50.91,56.8256 50.388,57.7666 49.865,58.7086 C49.575,57.6526 49.131,56.6106 49.032,55.5366 C48.889,53.9846 48.996,52.4096 48.996,50.8446 L50.043,50.3936 Z" id="Fill-12" fill="#000000"></path>
            <path d="M58.6362,50.627 C60.7782,50.752 62.8122,50.099 64.8132,51.188 C63.5492,53.014 60.4202,50.691 60.4472,53.571 C61.8912,54.231 62.9612,54.719 64.0292,55.207 C62.9432,55.572 61.8582,55.937 60.8392,56.279 C60.3842,57.112 59.8882,58.019 59.3932,58.925 C59.1412,58.808 58.8882,58.69 58.6362,58.572 L58.6362,50.627 Z" id="Fill-14" fill="#000000"></path>
            <path d="M47.4419,52.3604 C46.8109,52.3604 46.1649,52.2714 45.5529,52.3804 C44.4989,52.5684 43.1289,52.5714 42.5279,53.2314 C42.0129,53.7974 41.9809,55.5304 42.4779,56.1004 C43.0679,56.7794 44.4399,56.8274 45.4959,57.0334 C46.1249,57.1554 46.7969,57.0554 47.8959,57.0554 C45.4429,59.3034 43.0609,59.3984 41.2859,57.7274 C39.6999,56.2344 39.5479,53.7704 40.9369,52.0654 C42.4799,50.1724 44.8869,50.0234 47.4419,52.3604" id="Fill-16" fill="#000000"></path>
        </g>
    </g>
</svg>