<?xml version="1.0" encoding="UTF-8"?>
<svg width="63px" height="63px" viewBox="0 0 63 63" version="1.1" xmlns="http://www.w3.org/2000/svg" xmlns:xlink="http://www.w3.org/1999/xlink">
    <title>Combined Shape</title>
    <g id="Page-1" stroke="none" stroke-width="1" fill="none" fill-rule="evenodd">
        <path d="M31.5,0 C48.8969696,0 63,14.1030304 63,31.5 C63,48.8969696 48.8969696,63 31.5,63 C14.1030304,63 0,48.8969696 0,31.5 C0,14.1030304 14.1030304,0 31.5,0 Z M35.7617188,43.2265625 L28.7773438,43.2265625 L28.7773438,50 L35.7617188,50 L35.7617188,43.2265625 Z M31.6835938,15.1015625 C27.6523438,15.1015625 27.6523438,15.1015625 24.8867188,16.8828125 C20.6367188,19.587358 20.6367188,19.587358 20.2434681,25.9503056 L20.2226562,26.3515625 L26.9960938,26.3515625 C26.9960938,24.40625 26.9960938,24.40625 28.1328125,22.6015625 C29.2695312,20.796875 29.2695312,20.796875 31.9882812,20.796875 C34.7539062,20.796875 34.7539062,20.796875 35.796875,22.2617188 C36.8398438,23.7265625 36.8398438,23.7265625 36.8398438,25.5078125 C36.8398438,27.0546875 36.8398438,27.0546875 35.9023438,28.34375 C35.4603795,28.9866071 35.4603795,28.9866071 34.7773438,29.5433673 L34.5429688,29.7265625 L32.8320312,31.0625 C30.3007812,33.03125 30.3007812,33.03125 29.6914062,34.5429688 C29.1125,35.9791016 29.1125,35.9791016 28.9566406,39.6256543 L28.9414062,40.015625 L35.2695312,40.015625 C35.2929688,38.140625 35.2929688,38.140625 35.5742188,37.25 C35.9824219,35.9609375 35.9824219,35.9609375 37.1586914,34.9672852 L37.3789062,34.7890625 L39.0429688,33.5 C41.5742188,31.53125 41.5742188,31.53125 42.4648438,30.265625 C43.9882812,28.1796875 43.9882812,28.1796875 43.9882812,25.1328125 C43.9882812,20.1640625 43.9882812,20.1640625 40.484375,17.6328125 C36.9804688,15.1015625 36.9804688,15.1015625 31.6835938,15.1015625 Z" id="Combined-Shape" fill="#000000"></path>
    </g>
</svg>